# xmcd
#
# Track frame offsets:
#	150
#	17188
#	37473
#	54087
#	71355
#	86088
#	103865
#	127431
#	141366
#	157885
#	176923
#	199510
#	225587
#	250117
#	261332
#	280488
#	305032
#	326501
#	344668
#
# Disc length: 4831 seconds
#
# Revision: 1
# Processed by: cddbd v1.5.2PL0 Copyright (c) Steve Scherf et al.
# Submitted via: audiograbber 1.80
#
DISCID=2912dd13
DTITLE=OLD SKOÖL OF ROCK - CD 1
DYEAR=1900
DGENRE=
TTITLE0=KISS - CRAZY, CRAZY NIGHT
TTITLE1=ALICE COOPER - POISON
TTITLE2=HEART - ALONE
TTITLE3=POISON - UNSKINNY BOB
TTITLE4=WARRANT - CHERRY PIE
TTITLE5=CINDERELLA - GYPSU ROAD
TTITLE6=SCORPIONS - WIND OF CHANGE
TTITLE7=TERRORVISION - OBLIVION
TTITLE8=TWISTED SISTERS - WE´RE NOT GONNA TAKE IT
TTITLE9=BILLY IDOL - WHITE WEDDING
TTITLE10=RUSH - SPIRIT OF RADIO
TTITLE11=QUEENSRYCKE - SILENT LUCIDY
TTITLE12=GREAT WHITE - ONCE BITTEN, TWICE SKY
TTITLE13=THERAPY? - NOWHERE
TTITLE14=GUN - WORD UP
TTITLE15=THUNDER  - DIRTY LOVE
TTITLE16=LYNYRD SKYNYRD - SWEET HOME ALABAMA
TTITLE17=ZZ TOP - GIMME ALL YOUR LOVIN´
TTITLE18=EUROPE - FINAL COUNTDOWN
EXTD=
EXTT0=
EXTT1=
EXTT2=
EXTT3=
EXTT4=
EXTT5=
EXTT6=
EXTT7=
EXTT8=
EXTT9=
EXTT10=
EXTT11=
EXTT12=
EXTT13=
EXTT14=
EXTT15=
EXTT16=
EXTT17=
EXTT18=
PLAYORDER=
